<svg xmlns="http://www.w3.org/2000/svg" width="686" height="787">
  <path fill="#fff" d="M243 783c-48-6-123-31-139-46l44-64 47-61 23 16c11 9 30 20 41 26l22 10 23 5 24 5 41 2 41-7 22-8c64-25 114-76 138-141l10-25 4-35v-34l-4-19-3-20-43 57-44 56-35-26 52-68 52-68-12-17c-6-10-12-18-14-18-3 0-47 58-60 75l-52 69-34-26c-1-1 22-33 51-71l57-76 3-5-5-7c-3-3-11-9-17-12l-12-6-55 72-58 75-35-26 50-66 53-71 2-5-28-5c-35-6-50-6-85 1l-28 7-24 11c-13 6-32 17-42 25l-19 14-97-73-98-73 12-12c6-7 25-23 41-36l30-23 36-17 35-18 42-11 41-10 37-2 37-1 31 4 31 3 36 11 35 11 31 17c91 48 158 128 190 224l9 29 6 35 6 35-2 35a394 394 0 01-316 375l-23 5-38 2-39 1-25-4zm-40-627l14-6 11-12 12-12v-19l-6-5-7-6h-16l-16-1-22 30-23 30 5 3c3 2 12 4 20 4h14l14-6z"/>
</svg>